<svg width="97" height="71" viewBox="0 0 97 71" fill="none" xmlns="http://www.w3.org/2000/svg">
<path d="M16.64 27.2C19.2854 23.2747 21.888 19.6693 24.448 16.384C27.0507 13.056 29.5254 10.1973 31.872 7.80801C34.2187 5.41867 36.3734 3.56267 38.336 2.24001C40.2987 0.917338 42.0054 0.256004 43.456 0.256004C44.0107 0.256004 44.608 0.469337 45.248 0.896004C45.9307 1.32267 46.5494 1.87734 47.104 2.56001C47.7014 3.24267 48.192 3.98934 48.576 4.8C48.96 5.568 49.152 6.31467 49.152 7.04C46.5067 7.89334 43.904 9.024 41.344 10.432C38.8267 11.7973 36.3947 13.3973 34.048 15.232C31.744 17.024 29.5254 19.0293 27.392 21.248C25.3014 23.4667 23.4027 25.8347 21.696 28.352C22.3787 30.1013 23.2107 31.9787 24.192 33.984C25.216 35.9467 26.3254 37.8667 27.52 39.744C28.7147 41.5787 29.9947 43.2853 31.36 44.864C32.7254 46.4427 34.112 47.7013 35.52 48.64C35.3067 49.1093 34.944 49.5573 34.432 49.984C33.92 50.4107 33.3654 50.7947 32.768 51.136C32.1707 51.52 31.5307 51.8187 30.848 52.032C30.208 52.2453 29.6107 52.352 29.056 52.352C27.9467 52.352 26.9227 51.8187 25.984 50.752C25.0454 49.728 24.0854 48.1707 23.104 46.08C22.1654 43.9467 21.1627 41.3227 20.096 38.208C19.072 35.0507 17.92 31.3813 16.64 27.2ZM6.97604 52.672C5.35471 52.288 4.01071 51.6053 2.94404 50.624C1.87737 49.6853 0.896038 48.4907 3.8147e-05 47.04C0.384038 46.2293 0.832038 45.1627 1.34404 43.84C1.89871 42.5173 2.56004 40.896 3.32804 38.976C4.09604 37.0133 5.01337 34.688 6.08004 32C7.14671 29.2693 8.38404 26.0907 9.79204 22.464C10.688 20.16 11.4134 18.2187 11.968 16.64C12.5654 15.0613 13.056 13.5253 13.44 12.032C13.8667 10.496 14.272 8.81067 14.656 6.97601C15.04 5.14134 15.488 2.816 16 3.8147e-06C17.792 0.341338 19.4134 1.13067 20.864 2.368C22.3574 3.60534 23.6374 5.09867 24.704 6.848C24.2347 7.44534 23.68 8.36267 23.04 9.60001C22.4427 10.7947 21.76 12.2453 20.992 13.952C20.224 15.6587 19.3707 17.5573 18.432 19.648C17.4934 21.7387 16.512 23.9573 15.488 26.304C13.184 31.424 11.3707 36.1173 10.048 40.384C8.72537 44.608 7.70137 48.704 6.97604 52.672ZM37.925 68.672C37.3277 68.5013 36.9864 67.8613 36.901 66.752C36.7304 66.1973 36.6024 65.536 36.517 64.768C36.4744 64 36.453 63.1253 36.453 62.144C36.453 61.248 36.6024 60.0107 36.901 58.432C37.1997 56.896 37.605 55.1467 38.117 53.184C38.6717 51.2213 39.333 49.1093 40.101 46.848C40.869 44.544 41.7224 42.2187 42.661 39.872C43.813 36.928 44.8157 34.3893 45.669 32.256C46.5224 30.08 47.2264 28.2027 47.781 26.624C48.3784 25.0453 48.8477 23.744 49.189 22.72C49.573 21.696 49.8717 20.8213 50.085 20.096C50.2557 19.584 50.5117 18.9653 50.853 18.24C51.1944 17.5147 51.5784 16.7893 52.005 16.064C52.4744 15.296 52.9437 14.592 53.413 13.952C53.8824 13.2693 54.309 12.7573 54.693 12.416C56.1864 12.6293 57.5944 13.0133 58.917 13.568C60.2397 14.1227 61.0504 14.656 61.349 15.168C60.7517 15.7227 60.069 16.5973 59.301 17.792C58.533 18.944 57.7864 20.224 57.061 21.632C56.3357 22.9973 55.6744 24.4053 55.077 25.856C54.4797 27.3067 54.0317 28.5867 53.733 29.696C54.1597 28.9707 54.7144 28.1813 55.397 27.328C56.0797 26.4747 57.125 25.3013 58.533 23.808C60.1117 22.1867 61.5837 20.9493 62.949 20.096C64.357 19.2 65.573 18.752 66.597 18.752C68.2184 18.752 69.541 19.2 70.565 20.096C71.6317 20.992 72.165 22.144 72.165 23.552C72.165 26.624 71.653 29.6747 70.629 32.704C69.605 35.6907 68.133 38.4 66.213 40.832C65.4877 41.7707 64.6344 42.6667 63.653 43.52C62.6717 44.3733 61.6477 45.1413 60.581 45.824C59.5144 46.464 58.469 46.976 57.445 47.36C56.421 47.744 55.5037 47.936 54.693 47.936C53.925 47.936 53.2424 47.7867 52.645 47.488C52.0904 47.1467 51.7064 46.7413 51.493 46.272C53.157 45.2907 54.7784 43.9253 56.357 42.176C57.9357 40.4267 59.3864 38.4213 60.709 36.16C62.0744 33.856 63.2477 31.3813 64.229 28.736C65.253 26.0907 66.021 23.4027 66.533 20.672C64.9117 21.5253 63.4397 22.464 62.117 23.488C60.837 24.4693 59.557 25.7707 58.277 27.392C56.741 29.2693 55.525 30.784 54.629 31.936C53.733 33.088 52.9864 34.0693 52.389 34.88C51.8344 35.6907 51.365 36.4587 50.981 37.184C50.6397 37.8667 50.2557 38.72 49.829 39.744C49.2317 41.1093 48.5277 42.9227 47.717 45.184C46.949 47.4027 46.1384 49.8987 45.285 52.672C44.4744 55.4453 43.6424 58.3893 42.789 61.504C41.9784 64.6613 41.189 67.7973 40.421 70.912C39.9517 70.8267 39.5464 70.4853 39.205 69.888C38.8637 69.504 38.6077 69.2267 38.437 69.056C38.309 68.8853 38.1384 68.7573 37.925 68.672ZM96.2395 22.016C96.1969 22.8267 96.0475 23.68 95.7915 24.576C95.5782 25.4293 95.3009 26.2187 94.9595 26.944C94.6182 27.6267 94.2555 28.2027 93.8715 28.672C93.4875 29.1413 93.1249 29.376 92.7835 29.376C92.3142 29.3333 92.0369 29.0133 91.9515 28.416C91.9515 28.288 91.9942 28.096 92.0795 27.84C92.2075 27.5413 92.3355 27.2213 92.4635 26.88C92.5915 26.5387 92.6982 26.1973 92.7835 25.856C92.9115 25.5147 92.9755 25.216 92.9755 24.96C92.9755 24.3627 92.8262 23.872 92.5275 23.488C92.2715 23.0613 91.9089 22.848 91.4395 22.848C89.7329 22.848 88.4315 23.9147 87.5355 26.048C86.6395 28.1813 86.1915 31.3173 86.1915 35.456C86.1915 35.8827 86.2129 36.1387 86.2555 36.224C87.1515 36.1813 87.9409 36.16 88.6235 36.16C89.3489 36.1173 90.0529 36.096 90.7355 36.096C90.7782 36.1813 90.7995 36.352 90.7995 36.608C90.7995 36.992 90.7142 37.2693 90.5435 37.44C89.5622 37.6533 88.7729 37.8453 88.1755 38.016C87.6209 38.144 87.1942 38.272 86.8955 38.4C86.5969 38.528 86.4049 38.6773 86.3195 38.848C86.2769 38.976 86.2555 39.168 86.2555 39.424C86.2555 39.7653 86.2555 40.1067 86.2555 40.448C86.2982 40.7893 86.3195 41.216 86.3195 41.728C86.3195 45.312 85.3382 48.192 83.3755 50.368C81.4555 52.544 78.7675 53.8027 75.3115 54.144C74.7142 54.1013 74.0955 53.9307 73.4555 53.632C72.8155 53.3333 72.1969 52.9493 71.5995 52.48C71.0449 52.0107 70.5542 51.4773 70.1275 50.88C69.7009 50.3253 69.4022 49.7493 69.2315 49.152C69.2315 47.5307 69.5729 45.9947 70.2555 44.544C70.9382 43.0507 71.8555 41.7493 73.0075 40.64C74.2022 39.488 75.5889 38.5707 77.1675 37.888C78.7889 37.1627 80.5382 36.736 82.4155 36.608C82.4155 35.5413 82.3089 34.496 82.0955 33.472C81.8822 32.448 81.6475 31.4667 81.3915 30.528C81.1782 29.5467 80.9649 28.608 80.7515 27.712C80.5382 26.7733 80.4315 25.856 80.4315 24.96C80.4315 23.808 80.6662 22.6773 81.1355 21.568C81.6049 20.416 82.2235 19.3707 82.9915 18.432C83.7595 17.4507 84.6555 16.6187 85.6795 15.936C86.7035 15.2533 87.7702 14.784 88.8795 14.528C89.3489 14.656 89.9675 15.04 90.7355 15.68C91.5462 16.2773 92.3355 16.96 93.1035 17.728C93.8715 18.496 94.5542 19.2853 95.1515 20.096C95.7489 20.864 96.1115 21.504 96.2395 22.016ZM75.1195 51.2C76.1435 50.7733 77.1035 50.1547 77.9995 49.344C78.9382 48.5333 79.7489 47.616 80.4315 46.592C81.1142 45.568 81.6475 44.48 82.0315 43.328C82.4582 42.176 82.6715 41.0453 82.6715 39.936C81.8182 40.064 80.8795 40.4693 79.8555 41.152C78.8315 41.792 77.8715 42.5813 76.9755 43.52C76.0795 44.416 75.3329 45.3547 74.7355 46.336C74.1382 47.3173 73.8395 48.1707 73.8395 48.896C73.8395 49.8347 74.2662 50.6027 75.1195 51.2Z" fill="url(#paint0_linear_3_6)"/>
<defs>
<linearGradient id="paint0_linear_3_6" x1="-4.73596" y1="17.988" x2="103.264" y2="17.988" gradientUnits="userSpaceOnUse">
<stop stop-color="white"/>
</linearGradient>
</defs>
</svg>
